<svg width="24" height="26" viewBox="0 0 24 26" fill="none" xmlns="http://www.w3.org/2000/svg">
<path fill-rule="evenodd" clip-rule="evenodd" d="M7.80891 11.6994H5.20602V14.2994H7.80891V11.6994ZM13.0149 11.6994H10.412V14.2994H13.0149V11.6994ZM18.2209 11.6994H15.6181V14.2994H18.2209V11.6994ZM20.8231 2.6H19.5217V0H16.9188V2.6H6.50722V0H3.90433V2.6H2.60289C1.15829 2.6 0.0130144 3.77 0.0130144 5.2L0 23.4C0 24.83 1.15829 26 2.60289 26H20.8231C22.2547 26 23.426 24.83 23.426 23.4V5.2C23.426 3.77 22.2547 2.6 20.8231 2.6ZM20.8214 23.3988H2.60113V9.09878H20.8214V23.3988Z" fill="white"/>
</svg>
