<svg width="252" height="123" viewBox="0 0 252 123" fill="none" xmlns="http://www.w3.org/2000/svg">
<g filter="url(#filter0_d)">
<path d="M50.3992 114.69C49.2125 114.725 48.0575 114.302 47.171 113.51C46.2844 112.717 45.7334 111.614 45.6308 110.426L45.0942 106.203C39.9834 104.74 36.9936 100.943 36.2167 94.9136L31.617 59.3319C30.6303 59.1725 29.6315 59.1004 28.6322 59.1164C27.1532 59.1043 25.6794 59.2959 24.2523 59.686V113.649H15.2266V70.2722C15.2266 64.3864 17.8586 60.2299 22.6526 58.5006V55.704C22.6526 52.4712 24.61 50.3006 27.5181 50.3006C30.4261 50.3006 32.2507 52.1171 32.7209 55.432L33.0787 58.0234C38.3275 59.4961 41.394 63.7296 42.3037 70.6007L46.5559 104.899C49.0964 105.392 51.7072 105.392 54.2477 104.899L58.4999 70.6058C59.3892 63.7296 62.4914 59.4961 67.7249 58.008L68.0827 55.4166C68.5529 52.1171 70.403 50.2852 73.2855 50.2852C76.168 50.2852 78.151 52.4558 78.151 55.6886V58.4852C82.9449 60.2146 85.577 64.371 85.577 70.2568V113.633H76.5411V59.6809C75.1139 59.2908 73.6402 59.0991 72.1611 59.1113C71.1618 59.0953 70.1631 59.1674 69.1764 59.3268L64.5767 94.9136C63.8151 100.835 60.7538 104.725 55.6992 106.203L55.1932 110.431C55.1143 111.632 54.5664 112.753 53.6687 113.551C52.771 114.348 51.596 114.758 50.3992 114.69ZM46.7654 106.613L47.2305 110.252C47.2793 111.049 47.6393 111.796 48.2325 112.329C48.8256 112.862 49.6041 113.139 50.3992 113.1C50.7948 113.128 51.1921 113.077 51.5675 112.948C51.9429 112.82 52.2888 112.617 52.5848 112.352C52.8807 112.087 53.1207 111.765 53.2904 111.405C53.4602 111.045 53.5563 110.655 53.5731 110.257L54.0381 106.613C51.63 107.01 49.1736 107.01 46.7654 106.613ZM78.151 112.058H83.9671V70.2722C83.9671 65.2844 81.9637 61.8412 78.151 60.2351V112.058ZM16.8211 112.058H22.6526V60.2351C18.845 61.8412 16.862 65.2844 16.862 70.2722L16.8211 112.058ZM33.3087 59.7732L37.8164 94.7032C38.4604 99.7577 40.8369 103.026 44.8744 104.453L40.7091 70.8008C39.9425 64.8688 37.5149 61.246 33.3087 59.7732ZM67.4949 59.7732C63.2887 61.246 60.8509 64.8688 60.0945 70.8059L55.9291 104.432C59.9718 103.006 62.3432 99.7372 62.9872 94.6827L67.4949 59.7732ZM24.2625 57.9875C25.6961 57.6375 27.1671 57.4651 28.6425 57.4743C29.5651 57.4646 30.4873 57.5194 31.4023 57.6386L31.1263 55.6219C30.7737 53.1485 29.5573 51.8964 27.5181 51.8964C25.4789 51.8964 24.2625 53.3486 24.2625 55.6835V57.9875ZM72.1611 57.4743C73.6365 57.4651 75.1075 57.6375 76.5411 57.9875V55.704C76.5411 53.3692 75.294 51.917 73.2855 51.917C71.2769 51.917 70.0299 53.169 69.6773 55.6424L69.4013 57.6591C70.3163 57.54 71.2385 57.4851 72.1611 57.4949V57.4743Z" fill="white"/>
<path d="M110.493 113.648H101.626V51.3418H110.493V113.648ZM103.236 112.032H108.883V52.9582H103.236V112.032Z" fill="white"/>
<path d="M168.026 114.691C164.178 114.691 163.299 111.166 163.013 110.006L162.348 107.05C156.588 106.024 153.072 102.293 151.615 95.6789L143.27 59.2865C142.315 59.1665 141.354 59.1082 140.392 59.112C138.795 59.086 137.203 59.3023 135.67 59.7534V113.634H126.634V70.0164C126.634 64.3718 129.189 60.4462 134.06 58.6091V55.7047C134.06 52.4719 136.012 50.3013 138.92 50.3013C141.43 50.3013 143.275 51.9023 143.857 54.5809L144.598 57.8651C150.22 58.8914 153.593 62.5142 155.162 69.2313L163.672 105.629C164.63 105.749 165.594 105.807 166.56 105.803C168.15 105.816 169.736 105.621 171.277 105.223V51.343H180.313V96.3511C180.313 100.969 177.619 104.592 172.887 106.373V109.18C172.887 112.587 171.026 114.691 168.026 114.691ZM164.06 107.307L164.571 109.631C165.18 112.074 166.181 113.075 168.021 113.075C170.066 113.075 171.272 111.663 171.272 109.2V106.881C169.725 107.236 168.141 107.408 166.554 107.394C165.722 107.396 164.889 107.355 164.06 107.271V107.297V107.307ZM128.244 112.033H134.06V60.3436C130.196 62.0216 128.244 65.2698 128.244 70.0113V112.033ZM144.992 59.5892L153.169 95.3197C154.437 101.041 157.258 104.248 161.939 105.321L153.598 69.5905C152.239 63.7868 149.566 60.6514 144.992 59.5892ZM172.887 52.9594V104.654C176.648 103.053 178.703 100.143 178.703 96.3716V52.9594H172.887ZM135.67 58.0498C137.212 57.6506 138.8 57.4574 140.392 57.4751C141.225 57.4731 142.057 57.5142 142.886 57.5982V57.5726L142.283 54.9093C142.038 53.7804 141.261 51.8972 138.92 51.8972C136.579 51.8972 135.67 53.8522 135.67 55.6842V58.0498Z" fill="white"/>
<path d="M242.352 113.648H232.897L228.236 95.0922H202.027L197.453 113.648H187.998L200.192 68.583C201.603 63.4361 204.828 59.9159 209.54 58.3765L210.383 54.8358C210.895 52.8858 211.917 50.3149 215.142 50.3149C218.367 50.3149 219.394 52.8807 219.895 54.8204L220.728 58.3765C225.43 59.9159 228.655 63.4515 230.07 68.5932L242.352 113.648ZM234.149 112.031H240.241L228.517 69.0089C227.356 64.7857 224.842 61.7889 221.203 60.2854L228.45 89.0268H201.925L209.08 60.2597C205.436 61.7992 202.922 64.7806 201.761 68.9832L190.119 112.031H196.211L200.785 93.4757H229.472L234.149 112.031ZM203.995 87.4001H226.37L219.399 59.6388C216.605 58.9255 213.678 58.9255 210.884 59.6388L203.995 87.4001ZM211.329 57.8223V57.8839C213.846 57.3656 216.442 57.3656 218.959 57.8839V57.8172L218.336 55.1847C217.728 52.8294 216.833 51.9057 215.147 51.9057C213.46 51.9057 212.566 52.8294 211.952 55.2001L211.329 57.8172V57.8223Z" fill="white"/>
<path d="M11.3039 24V6.9375H16.343C18.1711 6.9375 19.5578 7.31641 20.5031 8.07422C21.4484 8.82422 21.9211 9.93359 21.9211 11.4023C21.9211 12.2852 21.6789 13.0547 21.1945 13.7109C20.718 14.3594 20.0617 14.8242 19.2258 15.1055C20.218 15.3242 21.0148 15.8125 21.6164 16.5703C22.2258 17.3281 22.5305 18.2031 22.5305 19.1953C22.5305 20.7031 22.0422 21.8828 21.0656 22.7344C20.0969 23.5781 18.7453 24 17.0109 24H11.3039ZM12.7453 15.7969V22.7812H17.0695C18.3039 22.7812 19.2805 22.4688 19.9992 21.8438C20.7258 21.2109 21.0891 20.3359 21.0891 19.2188C21.0891 18.1641 20.7414 17.332 20.0461 16.7227C19.3586 16.1055 18.4055 15.7969 17.1867 15.7969H12.7453ZM12.7453 14.5898H16.6828C17.8859 14.5664 18.8156 14.2852 19.4719 13.7461C20.1359 13.1992 20.468 12.4062 20.468 11.3672C20.468 10.2734 20.1242 9.46875 19.4367 8.95312C18.757 8.42969 17.7258 8.16797 16.343 8.16797H12.7453V14.5898ZM56.9766 6.9375V18.5859C56.9687 19.7344 56.7148 20.7344 56.2148 21.5859C55.7148 22.4375 55.0078 23.0938 54.0937 23.5547C53.1875 24.0078 52.1445 24.2344 50.9648 24.2344C49.168 24.2344 47.7266 23.7461 46.6406 22.7695C45.5625 21.7852 45.0039 20.4258 44.9648 18.6914V6.9375H46.3945V18.4805C46.3945 19.918 46.8047 21.0352 47.625 21.832C48.4453 22.6211 49.5586 23.0156 50.9648 23.0156C52.3711 23.0156 53.4805 22.6172 54.293 21.8203C55.1133 21.0234 55.5234 19.9141 55.5234 18.4922V6.9375H56.9766ZM81.9539 24H80.5125V6.9375H81.9539V24ZM107.248 22.7812H115.673V24H105.795V6.9375H107.248V22.7812ZM145.995 8.16797H140.147V24H138.705V8.16797H132.87V6.9375H145.995V8.16797ZM205.137 16.3945C205.137 17.9648 204.863 19.3438 204.316 20.5312C203.777 21.7188 203.004 22.6328 201.996 23.2734C200.988 23.9141 199.824 24.2344 198.504 24.2344C196.512 24.2344 194.902 23.5234 193.676 22.1016C192.449 20.6719 191.836 18.7461 191.836 16.3242V14.5664C191.836 13.0117 192.109 11.6367 192.656 10.4414C193.211 9.23828 193.992 8.31641 195 7.67578C196.008 7.02734 197.168 6.70312 198.48 6.70312C199.793 6.70312 200.949 7.01953 201.949 7.65234C202.957 8.28516 203.734 9.17969 204.281 10.3359C204.828 11.4922 205.113 12.832 205.137 14.3555V16.3945ZM203.695 14.543C203.695 12.4883 203.23 10.8789 202.301 9.71484C201.371 8.55078 200.098 7.96875 198.48 7.96875C196.895 7.96875 195.629 8.55469 194.684 9.72656C193.746 10.8906 193.277 12.5195 193.277 14.6133V16.3945C193.277 18.418 193.746 20.0234 194.684 21.2109C195.621 22.3906 196.895 22.9805 198.504 22.9805C200.137 22.9805 201.41 22.3984 202.324 21.2344C203.238 20.0625 203.695 18.4336 203.695 16.3477V14.543ZM240.673 24H239.231L229.423 9.39844V24H227.97V6.9375H229.423L239.243 21.5508V6.9375H240.673V24Z" fill="white"/>
</g>
<defs>
<filter id="filter0_d" x="7.30371" y="6.70312" width="239.048" height="115.994" filterUnits="userSpaceOnUse" color-interpolation-filters="sRGB">
<feFlood flood-opacity="0" result="BackgroundImageFix"/>
<feColorMatrix in="SourceAlpha" type="matrix" values="0 0 0 0 0 0 0 0 0 0 0 0 0 0 0 0 0 0 127 0" result="hardAlpha"/>
<feOffset dy="4"/>
<feGaussianBlur stdDeviation="2"/>
<feComposite in2="hardAlpha" operator="out"/>
<feColorMatrix type="matrix" values="0 0 0 0 0 0 0 0 0 0 0 0 0 0 0 0 0 0 0.25 0"/>
<feBlend mode="normal" in2="BackgroundImageFix" result="effect1_dropShadow"/>
<feBlend mode="normal" in="SourceGraphic" in2="effect1_dropShadow" result="shape"/>
</filter>
</defs>
</svg>
