<svg width="32" height="27" viewBox="0 0 32 27" fill="none" xmlns="http://www.w3.org/2000/svg">
<path fill-rule="evenodd" clip-rule="evenodd" d="M15.5378 7.09033L15.6072 8.23413L14.4511 8.09407C10.2429 7.55718 6.56658 5.73644 3.44514 2.67852L1.91911 1.16124L1.52604 2.28169C0.693653 4.77938 1.22545 7.41713 2.95959 9.19118C3.88446 10.1716 3.67636 10.3116 2.08096 9.72807C1.52604 9.54133 1.04048 9.40127 0.994236 9.4713C0.832384 9.6347 1.38731 11.7589 1.82662 12.5992C2.42779 13.7664 3.65324 14.9102 4.9943 15.5871L6.12727 16.124L4.78621 16.1474C3.49139 16.1474 3.44514 16.1707 3.58387 16.6609C4.04631 18.1782 5.87293 19.7889 7.90764 20.4891L9.34119 20.9793L8.09262 21.7263C6.24288 22.8001 4.06943 23.407 1.89598 23.4537C0.855505 23.477 0 23.5704 0 23.6404C0 23.8739 2.82086 25.1811 4.4625 25.6946C9.38744 27.2119 15.2372 26.5583 19.6304 23.9672C22.7518 22.1231 25.8733 18.4583 27.3299 14.9102C28.1161 13.0194 28.9022 9.56467 28.9022 7.90733C28.9022 6.83355 28.9716 6.6935 30.2664 5.40964C31.0294 4.66267 31.7462 3.84567 31.8849 3.61224C32.1161 3.16872 32.093 3.16872 30.9138 3.56555C28.9485 4.26584 28.671 4.17247 29.6421 3.12204C30.3589 2.37506 31.2144 1.02118 31.2144 0.624349C31.2144 0.55432 30.8676 0.671035 30.4745 0.881121C30.0583 1.11455 29.1334 1.46469 28.4398 1.67478L27.1912 2.07161L26.0582 1.30129C25.4339 0.881121 24.5553 0.414263 24.0929 0.274206C22.9137 -0.0525943 21.1102 -0.00590861 20.0466 0.367577C17.1563 1.41801 15.3297 4.12578 15.5378 7.09033Z" fill="#55ACEE"/>
</svg>
