<svg width="32" height="27" viewBox="0 0 32 27" fill="none" xmlns="http://www.w3.org/2000/svg">
<path fill-rule="evenodd" clip-rule="evenodd" d="M15.5378 7.03466L15.6072 8.17846L14.4511 8.03841C10.2429 7.50152 6.56658 5.68078 3.44514 2.62286L1.91911 1.10557L1.52604 2.22603C0.693653 4.72372 1.22545 7.36146 2.95959 9.13552C3.88446 10.1159 3.67636 10.256 2.08096 9.67241C1.52604 9.48566 1.04048 9.34561 0.994236 9.41564C0.832384 9.57903 1.38731 11.7032 1.82662 12.5436C2.42779 13.7107 3.65324 14.8545 4.9943 15.5315L6.12727 16.0684L4.78621 16.0917C3.49139 16.0917 3.44514 16.115 3.58387 16.6052C4.04631 18.1225 5.87293 19.7332 7.90764 20.4335L9.34119 20.9237L8.09262 21.6706C6.24288 22.7444 4.06943 23.3513 1.89598 23.398C0.855505 23.4214 0 23.5147 0 23.5848C0 23.8182 2.82086 25.1254 4.4625 25.6389C9.38744 27.1562 15.2372 26.5026 19.6304 23.9116C22.7518 22.0675 25.8733 18.4026 27.3299 14.8545C28.1161 12.9638 28.9022 9.50901 28.9022 7.85166C28.9022 6.77789 28.9716 6.63783 30.2664 5.35397C31.0294 4.607 31.7462 3.79 31.8849 3.55657C32.1161 3.11306 32.093 3.11306 30.9138 3.50989C28.9485 4.21017 28.671 4.1168 29.6421 3.06637C30.3589 2.3194 31.2144 0.965514 31.2144 0.568685C31.2144 0.498656 30.8676 0.615371 30.4745 0.825457C30.0583 1.05889 29.1334 1.40903 28.4398 1.61911L27.1912 2.01594L26.0582 1.24563C25.4339 0.825457 24.5553 0.358599 24.0929 0.218542C22.9137 -0.108258 21.1102 -0.0615727 20.0466 0.311913C17.1563 1.36234 15.3297 4.07012 15.5378 7.03466Z" fill="#00FF19"/>
</svg>
