<svg width="209" height="209" viewBox="0 0 209 209" fill="none" xmlns="http://www.w3.org/2000/svg">
<path d="M17.7965 64.1874C19.4755 64.1874 20.5923 63.0706 20.5923 61.3917V21.4287H60.5627C62.2416 21.4287 63.3585 20.3118 63.3585 18.6329C63.3585 16.954 62.2416 15.8371 60.5627 15.8371H17.7958C16.1168 15.8371 15 16.954 15 18.6329V61.3998C15 62.7905 16.1176 64.1874 17.7965 64.1874Z" fill="white" fill-opacity="0.06"/>
<path d="M60.5546 189.119H20.5916V149.156C20.5916 147.477 19.4747 146.36 17.7958 146.36C16.1169 146.36 15 147.477 15 149.156V191.915C15 193.594 16.1169 194.711 17.7958 194.711H60.5627C62.2416 194.711 63.3585 193.594 63.3585 191.915C63.3513 190.243 61.9524 189.119 60.5546 189.119Z" fill="white" fill-opacity="0.06"/>
<path d="M191.086 15.835H148.326C146.647 15.835 145.53 16.9519 145.53 18.6307C145.53 20.3096 146.647 21.4265 148.326 21.4265H188.289V61.3969C188.289 63.0759 189.406 64.1927 191.085 64.1927C192.764 64.1927 193.881 63.0758 193.881 61.3969V18.63C193.881 16.9511 192.765 15.835 191.086 15.835Z" fill="white" fill-opacity="0.06"/>
<path d="M191.085 146.358C189.406 146.358 188.289 147.475 188.289 149.154V189.117H148.326C146.647 189.117 145.53 190.233 145.53 191.912C145.53 193.591 146.647 194.708 148.326 194.708H191.086C192.765 194.708 193.882 193.591 193.882 191.912V149.153C193.882 147.755 192.764 146.358 191.085 146.358Z" fill="white" fill-opacity="0.06"/>
<path d="M45.8923 139.88C52.3641 142.176 59.1342 143.493 65.9781 143.777L66.6483 143.793C66.9839 149.603 68.08 155.353 69.8983 160.897C70.8728 163.856 72.2166 166.685 73.8933 169.315C75.771 172.337 78.3128 174.898 81.3177 176.802C84.7326 178.84 88.7089 179.708 92.6307 179.272C96.4464 178.785 100.086 177.45 103.294 175.361C109.474 171.256 114.793 165.998 118.977 159.871C119.337 159.5 119.575 158.977 119.877 158.55C124.612 160.72 129.543 162.395 134.611 163.551C138.636 164.467 142.767 164.782 146.867 164.476C149.025 164.283 151.152 163.828 153.194 163.11C155.313 162.331 157.289 161.207 159.032 159.778C162.37 156.874 164.6 152.895 165.342 148.507C165.995 144.694 165.954 140.781 165.215 136.962C163.874 130.237 161.528 123.744 158.254 117.697C158.093 117.54 158.031 117.309 157.926 117.095C162.778 113.947 167.184 110.176 171.04 105.872C173.105 103.583 174.871 101.047 176.296 98.3082C177.949 95.2086 178.873 91.7605 178.989 88.223C179.005 84.2705 177.722 80.4034 175.333 77.2197C172.956 74.1847 169.93 71.711 166.491 69.9761C159.795 66.6316 152.545 64.583 145.124 63.9365C144.584 63.8754 144.045 63.8581 143.519 63.8012L143.514 63.8056C142.978 58.6498 141.901 53.5511 140.31 48.6055C139.052 44.6769 137.216 40.9501 134.857 37.5473C133.58 35.7854 132.088 34.183 130.42 32.7789C128.677 31.3098 126.699 30.136 124.584 29.3091C120.358 27.8302 115.77 27.8427 111.591 29.3398C107.95 30.6135 104.577 32.5415 101.628 35.0261C96.4878 39.4551 92.0515 44.644 88.4681 50.4212L88.1213 50.9844C82.9151 48.2971 77.3863 46.2909 71.6767 45.026C68.6514 44.4037 65.5599 44.1627 62.4854 44.3068C58.9326 44.3981 55.4585 45.2939 52.3289 46.9353C48.8944 48.8551 46.197 51.8584 44.6598 55.4824C43.226 59.0266 42.6084 62.8572 42.8531 66.6937C43.3994 74.1473 45.3695 81.4489 48.6499 88.2054C48.8619 88.6939 49.1306 89.1774 49.4092 89.7134L49.4135 89.709C45.2185 92.6988 41.3567 96.1147 37.8884 99.9123C35.1253 102.921 32.8307 106.332 31.0895 110.032C30.2039 112 29.57 114.067 29.1958 116.198C28.8415 118.441 28.8693 120.739 29.2725 122.99C30.1665 127.293 32.4878 131.191 35.8548 134.047C38.8293 136.574 42.2301 138.554 45.8923 139.88ZM112.339 155.159C108.848 160.537 104.383 165.201 99.1794 168.935C96.9545 170.512 94.3991 171.58 91.7039 172.058C89.3258 172.415 86.8911 171.98 84.7648 170.825C82.6049 169.535 80.7549 167.791 79.3483 165.706C77.8619 163.569 76.6387 161.26 75.702 158.834C73.9168 154.214 72.6442 149.415 71.9214 144.523L71.8144 143.828C75.8636 143.816 79.9082 143.594 83.9266 143.166C87.0671 142.837 90.0738 142.396 92.944 141.917L92.9483 141.913C99.0415 146.746 105.526 151.059 112.336 154.806L112.439 154.906L112.339 155.159ZM97.9141 134.846C86.2231 125.617 75.8 114.885 66.9217 102.928C64.4991 99.6087 62.2944 96.2439 60.2146 92.7774L60.7591 92.449L60.7546 92.4446C64.8254 89.9855 69.0368 87.7572 73.3673 85.773C72.6305 88.5454 72.004 91.1593 71.5089 93.5751L71.5046 93.5795C71.2146 94.7462 71.9145 95.9395 73.086 96.2624C74.2487 96.5852 75.4468 95.9142 75.7676 94.7516C76.9139 91.2799 78.163 87.2908 79.7617 83.0755L80.5817 82.7316L80.5861 82.7359C94.2943 77.3332 108.687 73.8022 123.38 72.2339C127.464 71.8099 131.491 71.6053 135.449 71.6158L135.472 72.2546C135.597 77.0462 135.447 81.8359 135.024 86.6015L129.211 80.9605L129.207 80.9562C128.318 80.3421 127.125 80.4529 126.38 81.2208C125.639 81.9842 125.564 83.1797 126.205 84.0497C128.716 86.7947 131.498 89.9314 134.363 93.4832L134.26 94.3682C132.221 109.022 128.218 123.302 122.367 136.836C120.718 140.549 118.935 144.148 117.005 147.605L116.438 147.294C112.229 144.949 108.15 142.37 104.228 139.567C106.992 138.848 109.543 138.143 111.951 137.361L111.942 137.362C112.926 136.92 113.437 135.83 113.147 134.787C112.858 133.743 111.853 133.051 110.779 133.157C107.175 133.935 103.103 134.723 98.6265 135.399C98.3946 135.2 98.1546 135.036 97.9141 134.846ZM151.977 120.756C154.675 126.253 156.57 132.102 157.597 138.12C158.558 144.117 157.718 150.431 153.715 153.572C152.681 154.351 151.525 154.961 150.291 155.382C148.909 155.832 147.47 156.115 146.01 156.224C142.748 156.391 139.476 156.086 136.294 155.312C132.241 154.335 128.28 152.985 124.474 151.271C126.508 147.744 128.373 144.104 130.078 140.343L130.074 140.347C135.36 128.485 139.21 116.027 141.542 103.218C142.179 104.118 142.794 105.024 143.369 105.916L143.373 105.912C145.667 109.328 147.787 112.851 149.735 116.472C148.298 117.425 146.886 118.334 145.592 119.229C144.71 119.933 144.54 121.199 145.195 122.134C145.704 123.014 146.802 123.351 147.707 122.91C149.023 122.216 150.421 121.465 151.861 120.669L151.977 120.756ZM144.422 71.9702C150.862 72.3667 157.187 73.9461 163.085 76.6279C165.584 77.8017 167.809 79.5075 169.589 81.6284C171.114 83.5108 171.982 85.8364 172.065 88.2386C172.049 90.7248 171.484 93.1762 170.403 95.4001C169.311 97.7334 167.935 99.9202 166.306 101.912C163.227 105.685 159.728 109.093 155.879 112.085L155.328 112.518L155.332 112.514C153.247 109.017 150.99 105.626 148.564 102.355C146.634 99.7627 144.758 97.4106 142.875 95.1636C143.94 87.5257 144.355 79.7969 144.123 72.0739L144.12 71.9426L144.422 71.9702ZM94.3387 54.4733C97.7105 49.451 101.79 44.9521 106.461 41.1138C111.164 37.3406 117.067 34.9974 121.824 36.9401C123.052 37.4462 124.192 38.1501 125.209 39.0169C126.307 39.9968 127.286 41.1003 128.126 42.31C129.941 45.0565 131.345 48.0472 132.297 51.1818C133.517 55.1676 134.362 59.2441 134.824 63.3763C130.738 63.3451 126.623 63.5067 122.485 63.8611C109.5 65.0823 96.7242 67.8423 84.4315 72.0822L85.8684 69.0895C87.6588 65.4372 89.6264 61.8798 91.7714 58.4257C93.2758 59.1659 94.8387 59.98 96.3018 60.6285C97.3658 61.0441 98.555 60.5702 99.0231 59.5421C99.5296 58.6712 99.2603 57.553 98.4163 56.9823C97.1336 56.1747 95.78 55.3238 94.3607 54.4691L94.3387 54.4733ZM55.95 84.8705C53.0146 79.0915 51.1633 72.8306 50.4856 66.4062C50.2206 63.6641 50.5592 60.8994 51.4928 58.318C52.3418 56.0743 53.9076 54.1834 55.9556 52.9318C58.1228 51.7274 60.5417 51.0243 63.0292 50.8676C65.608 50.6795 68.2022 50.7978 70.7596 51.2401C75.6017 52.066 80.3458 53.4222 84.8996 55.2877C85.1248 55.3777 85.3281 55.4636 85.5447 55.5624C83.5762 59.0762 81.7893 62.6891 80.1969 66.3878C78.946 69.2783 77.8557 72.1018 76.8728 74.8325C69.7102 77.6415 62.8057 81.0524 56.2335 85.0336L56.135 85.1351L55.95 84.8705ZM37.1949 121.51C37.009 120.198 37.037 118.863 37.2716 117.566C37.556 116.136 38.0163 114.749 38.6358 113.431C40.0699 110.513 41.9251 107.832 44.1459 105.463C46.9745 102.449 50.085 99.7182 53.4297 97.2916C55.494 100.846 57.7363 104.333 60.1564 107.744L60.1521 107.748C67.8551 118.402 76.7768 128.123 86.7381 136.701C85.6544 136.789 84.6 136.82 83.4376 136.917L83.4333 136.922C79.3538 137.153 75.2656 137.179 71.1773 136.998C71.0486 135.297 70.9254 133.643 70.7238 132.017C70.5376 130.894 69.5178 130.093 68.3816 130.19C67.3701 130.176 66.529 130.962 66.4721 131.978C66.4255 133.467 66.4033 135.073 66.3505 136.685C60.2818 136.228 54.2906 134.895 48.5834 132.733C42.9414 130.548 37.8915 126.59 37.1299 121.533L37.1949 121.51Z" fill="white" fill-opacity="0.25"/>
<path d="M102.586 115.909H83.3759L93.9672 96.0592H83.3759V91.0924H102.586L92.0289 110.942H102.586V115.909ZM110.633 115.909H105.666V91.0924H110.633V103.501L119.874 91.0924H125.516L117.676 101.563L125.516 115.909H119.874L114.423 105.872L110.633 110.942V115.909Z" fill="white"/>
</svg>
